<?xml version="1.0" encoding="UTF-8"?>
<svg width="24px" height="24px" viewBox="0 0 24 24" version="1.1" xmlns="http://www.w3.org/2000/svg" xmlns:xlink="http://www.w3.org/1999/xlink">
    <!-- Generator: Sketch 63 (92445) - https://sketch.com -->
    <title>Icon/close Copy</title>
    <desc>Created with Sketch.</desc>
    <defs>
        <path d="M13.4142136,12 L17.363961,15.9497475 C17.7544853,16.3402718 17.7544853,16.9734367 17.363961,17.363961 C16.9734367,17.7544853 16.3402718,17.7544853 15.9497475,17.363961 L12,13.4142136 L8.05025253,17.363961 C7.65972824,17.7544853 7.02656326,17.7544853 6.63603897,17.363961 C6.24551468,16.9734367 6.24551468,16.3402718 6.63603897,15.9497475 L10.5857864,12 L6.63603897,8.05025253 C6.24551468,7.65972824 6.24551468,7.02656326 6.63603897,6.63603897 C7.02656326,6.24551468 7.65972824,6.24551468 8.05025253,6.63603897 L12,10.5857864 L15.9497475,6.63603897 C16.3402718,6.24551468 16.9734367,6.24551468 17.363961,6.63603897 C17.7544853,7.02656326 17.7544853,7.65972824 17.363961,8.05025253 L13.4142136,12 Z" id="path-1"></path>
    </defs>
    <g id="Icon/close-Copy" stroke="none" stroke-width="1" fill="none" fill-rule="evenodd">
        <mask id="mask-2" fill="white">
            <use xlink:href="#path-1"></use>
        </mask>
        <use id="Path" fill="#FFFFFF" fill-rule="nonzero" xlink:href="#path-1"></use>
    </g>
</svg>