<?xml version="1.0" encoding="UTF-8"?>
<svg width="20px" height="20px" viewBox="0 0 20 20" version="1.1" xmlns="http://www.w3.org/2000/svg" xmlns:xlink="http://www.w3.org/1999/xlink">
    <!-- Generator: Sketch 53.1 (72631) - https://sketchapp.com -->
    <title>Mark/positive</title>
    <desc>Created with Sketch.</desc>
    <defs>
        <rect id="path-1" x="0" y="0" width="20" height="20" rx="10"></rect>
    </defs>
    <g id="Page-1" stroke="none" stroke-width="1" fill="none" fill-rule="evenodd">
        <g id="0004.-Landing--Integration-Asana-#01" transform="translate(-346.000000, -4099.000000)">
            <g id="Block/support" transform="translate(-106.000000, 2982.000000)">
                <g id="Features" transform="translate(106.000000, 0.000000)">
                    <g id="Group-22" transform="translate(330.000000, 120.000000)">
                        <g id="Group" transform="translate(0.000000, 128.000000)">
                            <g id="Group-14">
                                <g id="Group-16">
                                    <g id="Table/cell/type-09" transform="translate(0.000000, 831.000000)">
                                        <g id="Mark/positive" transform="translate(16.000000, 38.000000)">
                                            <g id="mark">
                                                <mask id="mask-2" fill="white">
                                                    <use xlink:href="#path-1"></use>
                                                </mask>
                                                <use id="back" fill="#E6E9ED" xlink:href="#path-1"></use>
                                                <path d="M7.69953513,5.93567567 C7.84249873,5.80953132 7.99852792,5.69015328 8.16753141,5.57748428 C8.341337,5.46161389 8.52855256,5.36105239 8.7289309,5.27578501 C8.93100249,5.1897971 9.14887963,5.12251151 9.38233411,5.0736983 C9.61799017,5.02442476 9.87073336,5 10.1404586,5 C10.5114668,5 10.8531341,5.05173511 11.1644844,5.15624429 C11.4805123,5.2623236 11.7548472,5.4157272 11.9850808,5.61661734 C12.2178684,5.81973588 12.3987408,6.06585976 12.5260247,6.3522484 C12.6532708,6.63855213 12.7162919,6.95590849 12.7162919,7.30166667 C12.7162919,7.6345528 12.6670451,7.92891438 12.5659671,8.18390654 C12.4689159,8.4287403 12.3449535,8.64427852 12.1937016,8.82939273 C12.0485152,9.00708355 11.890372,9.1619549 11.7193265,9.29352833 C11.5670453,9.41066775 11.4225274,9.52100906 11.2857622,9.62455987 C11.1605606,9.7193554 11.0536843,9.81121601 10.9651794,9.89972087 C10.9115567,9.95334357 10.8839572,10.0053754 10.8749849,10.0627964 L10.6992497,11.1783333 L9.16468892,11.1783333 L9.13547773,10.8982495 L9.04069376,9.97628629 C9.03160659,9.92576112 9.03160659,9.92576112 9.02879189,9.86541667 L9.02879189,9.81583333 C9.02879189,9.58406396 9.0891526,9.3741733 9.21084101,9.19440633 C9.31222879,9.04462892 9.43759861,8.9055824 9.58620234,8.77724281 C9.72212448,8.65985551 9.8679396,8.54587327 10.023623,8.43525612 C10.159201,8.3389244 10.2856283,8.2347554 10.4030182,8.12270139 C10.5082609,8.02224244 10.5956306,7.90866185 10.6658077,7.78106706 C10.7247862,7.67383357 10.7554586,7.54277882 10.7554586,7.38333333 C10.7554586,7.28812788 10.7387621,7.20835598 10.7067905,7.14086032 C10.6731607,7.06986408 10.6273252,7.00997243 10.5674942,6.95886677 C10.5060474,6.90638099 10.4301815,6.86481963 10.3375511,6.83440369 C10.2395841,6.80223542 10.1314794,6.78583333 10.0121252,6.78583333 C9.82035441,6.78583333 9.66381691,6.80611021 9.54349258,6.84418753 C9.40925258,6.88666854 9.29855073,6.932932 9.2118168,6.9818184 C9.11069401,7.03881488 9.02624097,7.08966833 8.95888038,7.1339845 C8.83812856,7.21342649 8.71598195,7.25833333 8.58879189,7.25833333 C8.33537901,7.25833333 8.12725317,7.13826073 8.02118232,6.9376096 L7.5,6.11173608 L7.69953513,5.93567567 Z M8.69629189,13.0475 C8.69629189,12.886467 8.72651642,12.731402 8.78680653,12.5846087 C8.84750847,12.4368126 8.93361637,12.3076508 9.04431568,12.1996515 C9.15201496,12.094579 9.27866156,12.0110184 9.42235877,11.9494338 C9.5706526,11.8858793 9.729216,11.8541667 9.89545855,11.8541667 C10.0581466,11.8541667 10.2147598,11.8860202 10.362725,11.9494338 C10.5074866,12.0114745 10.6341513,12.0959177 10.7405961,12.2023625 C10.8470409,12.3088073 10.931484,12.435472 10.9935247,12.5802336 C11.0569384,12.7281987 11.0887919,12.8848119 11.0887919,13.0475 C11.0887919,13.2142661 11.0568744,13.3725235 10.9927104,13.519566 C10.9306487,13.6617908 10.8464286,13.786805 10.7405961,13.8926375 C10.6330499,14.0001837 10.5048469,14.0843169 10.3583499,14.1444854 C10.2115566,14.2047755 10.0564916,14.235 9.89545855,14.235 C9.73085546,14.235 9.57384657,14.2049066 9.42673391,14.1444854 C9.28130516,14.0847557 9.15312716,14.0015061 9.04431568,13.8953485 C8.93422838,13.7879463 8.8483246,13.6604329 8.78756901,13.5151477 C8.72657487,13.3692922 8.69629189,13.2126107 8.69629189,13.0475 Z" id="icon" fill="#79808A" fill-rule="nonzero" mask="url(#mask-2)"></path>
                                            </g>
                                        </g>
                                    </g>
                                </g>
                            </g>
                        </g>
                    </g>
                </g>
            </g>
        </g>
    </g>
</svg>