<?xml version="1.0" encoding="UTF-8"?>
<svg width="48px" height="48px" viewBox="0 0 48 48" version="1.1" xmlns="http://www.w3.org/2000/svg" xmlns:xlink="http://www.w3.org/1999/xlink">
    <!-- Generator: Sketch 55 (78076) - https://sketchapp.com -->
    <title>Icon/special/media/linkedin/gray</title>
    <desc>Created with Sketch.</desc>
    <g id="Page-1" stroke="none" stroke-width="1" fill="none" fill-rule="evenodd">
        <g id="0001.-Landing--Home--Desktop-#13" transform="translate(-936.000000, -448.000000)" fill="#7F8FA4" fill-rule="nonzero">
            <g id="Group-2" transform="translate(205.000000, 95.000000)">
                <g id="Icon/special/media/linkedin/gray" transform="translate(755.000000, 377.000000) rotate(-360.000000) translate(-755.000000, -377.000000) translate(731.000000, 353.000000)">
                    <g id="Twitter_Bird" transform="translate(12.923077, 14.769231)">
                        <path d="M7.54781888,20.3076923 C16.6050289,20.3076923 21.557717,12.4954653 21.557717,5.72123759 C21.557717,5.49934362 21.5533761,5.27845083 21.5438163,5.05855671 C22.505265,4.33490672 23.3409537,3.43184266 24,2.40383851 C23.1177513,2.81214143 22.1683027,3.08700929 21.1722924,3.21094987 C22.1889426,2.5762552 22.9694297,1.5722409 23.3375937,0.375318342 C22.3862242,0.962534745 21.332614,1.38932939 20.2108429,1.6197175 C19.3122742,0.623198666 18.0330616,0 16.6165682,0 C13.8973414,0 11.6921993,2.29589173 11.6921993,5.12602429 C11.6921993,5.52832933 11.7353992,5.91964147 11.8198808,6.29495897 C7.7273614,6.08056298 4.09852428,4.04054847 1.67018141,0.93854657 C1.24729666,1.69618064 1.0034551,2.5762552 1.0034551,3.51530152 C1.0034551,5.29394319 1.87274298,6.86418508 3.1946756,7.7827415 C2.38682851,7.75675431 1.62794061,7.52586478 0.964573497,7.14155087 C0.963848665,7.1630604 0.963848665,7.18403077 0.963848665,7.20701943 C0.963848665,9.68981986 2.66114604,11.7628189 4.91428814,12.2325916 C4.50052419,12.3500354 4.06515945,12.4130043 3.61587551,12.4130043 C3.29907236,12.4130043 2.9904292,12.3805404 2.69042684,12.3205499 C3.31731235,14.3575659 5.1350897,15.8398494 7.29031182,15.8813307 C5.60501444,17.2566653 3.48195393,18.0757707 1.17457184,18.0757707 C0.777607092,18.0757707 0.385443949,18.0522622 0,18.004804 C2.17922211,19.4591031 4.76692736,20.3076923 7.54807338,20.3076923" id="path3611"></path>
                    </g>
                </g>
            </g>
        </g>
    </g>
</svg>